<?xml version="1.0" encoding="utf-8"?>
<!-- Generator: Adobe Illustrator 23.0.1, SVG Export Plug-In . SVG Version: 6.00 Build 0)  -->
<svg version="1.0" id="Camada_1" xmlns="http://www.w3.org/2000/svg" xmlns:xlink="http://www.w3.org/1999/xlink" x="0px" y="0px"
	 width="1417.322876px" height="1417.322876px" viewBox="0 0 1417.322876 1417.322876"
	 enable-background="new 0 0 1417.322876 1417.322876" xml:space="preserve">
<path fill="#005F9F" d="M708.661499,708.661377L708.661499,708.661377L708.661499,708.661377L708.661499,708.661377
	L708.661499,708.661377z M708.6613159,1092.2250977c-211.9691772,0-383.5634766-171.5942993-383.5634766-383.5637207
	s171.5942688-383.5636597,383.5634766-383.5636597c211.9694214,0,383.5637817,171.5942993,383.5637817,383.5636597
	S920.6307373,1092.2250977,708.6613159,1092.2250977z"/>
<title>Ativo 223</title>
<path fill="#005F9F" d="M708.661377,40.0876961L40.087719,708.6611938l668.5736694,668.5737915l668.5737305-668.5737915
	L708.661377,40.0876961z M708.6612549,1116.1417236c-225.1860962,0-407.4802856-182.2941895-407.4802856-407.4804688
	c0-225.1860046,182.2941895-407.4802246,407.4802856-407.4802246s407.4804688,182.2941895,407.4804688,407.4802246
	S933.8475342,1116.1417236,708.6612549,1116.1417236z"/>
<path opacity="0.5" fill="#FFFFFF" fill-opacity="0.5" enable-background="new    " d="M1015.7034302,611.4312744
	c-0.3182983,1.3414307-0.6873779,2.9241333-1.0874023,4.7028809c-3.1185913,13.8382568-9.6390991,42.6533203-19.4901733,44.0706787
	c-3.994873,0.6026001-8.2160034-3.3540649-12.8053589-11.5925903l-1.09375-1.9372559
	c-18.2773438-32.8696899-39.0120239-70.1116943-31.8890991-76.0432739
	C954.8469849,565.9963379,977.2175903,579.7969971,1015.7034302,611.4312744z M909.1786499,691.8383789
	c2.3198853-27.3728638,2.2845459-54.8944092-0.1055908-82.2612305c-1.4620972-17.9765015-2.4121704-38.8699951,3.1661987-40.875
	c0.3052368-0.105896,0.6262207-0.1593628,0.9492798-0.15802c6.8816528,0,21.7371826,21.2094116,26.7877808,28.414917
	c9.5437622,14.055542,18.2784424,28.6437378,26.161499,43.6936035c2.7209473,4.96698,5.4489746,9.9344482,8.2302246,14.878479
	c16.3406372,29.2975464,2.5319824,53.4545288-7.1602783,65.2503662v0.0073853
	c-25.4685669,31.4075928-41.6663208,46.3085327-50.4998169,46.3085327
	c-0.8249512,0.0063477-1.6435547-0.1444092-2.4121704-0.4441528c-9.9185181-3.9645386-8.1778564-36.2316895-5.1171875-74.8150024
	L909.1786499,691.8383789z M637.3776855,913.7799072c40.7275391-3.6815186,80.8535156-12.3201294,119.4879761-25.7241211
	c23.4100952-7.9063721,47.687561-15.2484131,62.7772827-15.2484131c4.9642334-0.673645,9.9593506,1.0006104,13.5148926,4.5298462
	c6.1728516,8.5025024-3.994873,29.9158325-31.9660645,67.3904419
	c-10.3438721,12.4544678-21.4899902,24.2202148-33.3673096,35.2219849
	c-40.8218384,37.7246094-66.2071533,28.8673706-104.4130249-3.7766113
	c-10.2054443-8.7128296-19.9136963-18.2924194-29.3049316-27.5632324c-2.4647827-2.4193115-4.9067383-4.8394165-7.3712769-7.2507935
	c-7.2817383-7.1229858-14.4793091-15.0515747-12.7307129-19.8909912c1.4398193-4.0100098,9.0898438-6.5197144,23.3728027-7.6881104
	H637.3776855z M814.8806152,829.03125c-2.8193359,19.46875-24.0287476,35.9450684-64.8204956,50.3640747
	c-39.5670776,14.1767578-80.9853516,22.5247192-122.954895,24.7819824
	c-28.7768555-1.7557373-42.9545288-11.8401489-63.1995239-44.9666748
	c-17.0264282-27.7148438-37.9802246-64.699707-49.1433105-104.9862671
	c-20.4402466-73.4430542-19.913208-117.9204712,1.5985718-132.1959839c5.7902222-3.6132812,12.526123-5.4186401,19.34729-5.1854858
	c42.1488647,0,113.1420898,51.8937988,166.2416382,93.9815063c8.5473022,6.776001,18.3684082,13.8991089,28.7769775,21.4437256
	c41.6355591,30.2165527,88.8494263,64.4660034,84.1536865,96.7630615L814.8806152,829.03125z M428.287323,753.4855957
	c9.4065552-76.7747192,21.0887146-93.7333984,29.2142029-94.434021c0.1960449-0.0151367,0.369873-0.0303345,0.5429382-0.0303345
	c7.1832886,0,19.0845337,12.029541,35.9219971,67.3754883c13.9259338,48.5427246,34.1630554,95.0476685,60.1929016,138.3232422
	c11.1702271,18.1122437,18.2630005,30.3071899,15.322998,34.7544556c-1.7787476,2.7130127-7.5293579,3.1733398-18.5789795,1.4993896
	c-16.6958618-2.3878174-33.201416-5.956665-49.392395-10.6796875
	c-30.129364-34.6889038-54.906311-73.6851196-73.5101929-115.6969604
	C427.8952332,767.7987671,428.0007935,760.6757812,428.287323,753.4855957z M531.0505981,921.2942505
	c-5.5100708-5.237854-11.0495605-10.7622681-16.8533325-16.845459c13.5199585,3.2843628,27.2074585,5.8356934,41.0027466,7.6428833
	c30.8873901,3.9647217,37.3396606,9.3684692,59.7476196,31.6112671c2.4343872,2.3970947,4.8235474,4.8013306,7.2357178,7.2055054
	c10.5371704,10.5217285,21.4208374,21.3982544,32.8925781,31.1588135
	c22.3933105,18.9036255,22.4078369,23.2000732,21.8806763,24.0588989c-0.527771,0.7993164-4.1000977,2.6534424-29.0563354-7.8087769
	v-0.0071411c-43.3256226-18.3216553-82.9289551-44.4241333-116.8496704-77.0152588V921.2942505z M869.2688599,494.0538025
	c-4.348877,3.82901-23.7271118-9.5422668-39.2843018-20.2227783
	c-33.7522583-23.1368408-70.6345825-41.3368835-109.5308838-54.0493774
	c-5.9091187-1.9819336-9.3690186-4.6957092-9.2857666-7.2658386c0.1053467-2.697876,4.1376343-5.3132629,10.7855225-7.0079041
	c21.3366089-4.7056274,43.0646362-7.4162598,64.9033813-8.0968933l6.5120239-0.4151306
	c2.2835693-0.148407,4.3417358-0.2238159,6.2403564-0.2238159c14.8491821,0,19.0845337,4.5354004,26.7345581,14.1839905
	c12.3557129,15.3494873,23.2067871,31.8515015,32.4034424,49.2782288
	C871.2508545,484.8512268,871.3571777,492.2075806,869.2688599,494.0538025z M573.3717041,544.1987915
	c6.2030029-22.1737671,38.6056519-35.5679932,96.2810669-39.8184814c13.581604-1.010437,26.093689-1.5454102,38.1907349-1.5454102
	c32.0385742,0.2025757,63.9558105,3.9590149,95.1660156,11.2003784
	c60.8397827,13.1148682,90.7103882,31.0913696,95.8657227,97.7579346
	c2.0797729,24.7935791,2.2310181,49.7112427,0.4524536,74.5282593
	c-3.4678345,47.4017334-15.1809692,75.0631714-35.7950439,84.5679321
	c-34.6187134,15.9486084-87.348999-22.8305054-133.8989868-57.0494385
	c-6.8058472-4.9973755-13.2427368-9.7306519-19.5211182-14.2151489
	c-101.0750732-72.3275757-145.800415-123.1662598-136.7407227-155.4259644L573.3717041,544.1987915z M845.4512939,505.8193359
	c-2.0422974,4.4615784-24.6240234-0.1055603-38.1381836-2.8566589
	c-34.0823364-7.5504761-68.8723755-11.4467468-103.7805786-11.6226807c-12.6630859,0-25.6419067,0.482605-39.8724365,1.2588501
	c-65.4008179,3.6400757-77.7314453-6.4070129-79.2617798-12.737854
	c-2.65979-10.8765564,20.2077026-28.3323669,61.1799927-46.7080994
	c24.059021-10.8614502,40.2261353-12.1576233,63.9760132-5.2909851
	c48.4569092,14.0935364,83.196167,30.5627441,112.62146,53.4238892
	c21.0593872,16.3175964,24.2771606,22.3475952,23.2754517,24.5335693L845.4512939,505.8193359z M636.081665,424.6131287
	c-8.0050049,3.4368896-16.5368042,7.3563538-25.5814209,11.5170898
	c-30.1865234,13.8760681-64.4282227,29.62854-70.5559082,22.2872925
	c-2.0057373-2.3899536-1.7565308-8.9692078,10.7178345-26.6964722
	c13.1895142-18.8361206,25.3098145-19.8680115,47.3486328-20.1854553c2.7058105-0.0452576,5.1029053-0.0976257,7.3039551-0.1508179
	c3.1955566-0.08255,6.0141602-0.1499939,8.862854-0.1499939c6.310791,0.0183716,12.6160889,0.3728943,18.8891602,1.0620117
	c5.5775146,0.5429077,9.2931519,2.5320129,9.6921997,5.1934204c0.3693848,2.4653625-2.1779785,5.1933899-6.6779175,7.1229858
	L636.081665,424.6131287z M418.6101074,751.9404297c-12.0919189-32.8327637-20.5543213-66.8903198-25.2359924-101.5643311
	c-2.3957825-12.3212891,0.3346558-25.086792,7.5611267-35.3499756
	c13.4537964-17.7352295,20.8244019-22.1967773,24.8343506-22.1967773c0.597229-0.0036011,1.1891785,0.1116333,1.7414551,0.3389282
	c11.2384644,4.7329712,3.6630859,55.8286133-2.4272156,96.883728c-3.8369446,25.8301392-7.4619141,50.2359619-6.4744873,61.8884277
	H418.6101074z M482.8867493,884.2268066c-1.0770874-0.3920898-2.095459-0.7770386-3.0828552-1.1985474l-0.0293884-0.0230103
	c-31.9429932-11.9234619-45.8040466-30.8421631-49.3925171-67.5039673
	c-0.6325989-5.4711914-1.0770874-10.234436-1.3787231-14.6594849
	C444.0073853,830.4398193,462.0668335,858.3869629,482.8867493,884.2268066z M1022.8613281,618.1010742
	c16.1861572,16.1055298,30.4307861,34.0510254,42.442627,53.4699707l1.659668-0.5959473
	c-0.1055908-0.8665771-0.1967773-1.8312988-0.3023682-2.8183594c-0.2484131-2.494812-0.5269775-5.3141479-0.9484863-7.5678711
	l-0.1055908-0.2861328c-11.3493652-19.1730957-25.0198975-36.8734131-40.7019043-52.7003174
	c3.7757568-32.9987183,5.0267334-47.3184814,3.1130371-66.1546021l-0.0913086-0.3016357
	c-1.1746826-2.5018311-3.4122314-6.850708-5.2227783-10.3336182c-0.7905884-1.5525513-1.5144653-2.9542847-2.0565796-4.0321655
	l-1.7136841,0.5048218c1.7263794,15.9191284,3.5067139,32.3724365-1.8375244,73.7744751
	c-16.8137207-15.5759888-35.1945801-29.369751-54.8486938-41.1607056
	c-52.7905273-31.6636353-61.7597046-47.5900269-91.501709-100.3431396l-3.1359863-5.5323181
	c-9.296875-15.7152405-19.5048218-30.8734131-30.5714722-45.3968506c-3.866272-5.359314-5.3053589-8.7207642-4.4314575-10.2645874
	c0.8445435-1.5327148,4.2957153-2.019989,10.7709961-1.4565125c21.3018188,1.1834717,42.3322754,5.3496399,62.4764404,12.3766785
	l0.8294678-1.5827026c-4.7711182-3.272583-9.9034424-6.4070129-14.8856812-9.428772l-0.769104-0.4754333l-0.2182617-0.0968628
	c-15.6801758-4.2324829-31.6641846-7.2462769-47.809021-9.0144348c-14.350708-1.8771667-24.0438232-3.8146973-37.3928223-14.9182434
	c-1.8994141-1.6199951-3.9194336-3.3670044-5.9998169-5.163208c-6.4011841-5.7715149-13.1008301-11.2031555-20.0712891-16.2724915
	l-3.4824829-0.7143555c-2.4269409-0.45401-4.815979-0.8897705-7.2434692-1.3049011l-0.6480103,1.6437988
	c7.600708,5.4273376,14.6833496,11.5458374,21.1574707,18.2773438c2.3740845,2.3129272,4.7329712,4.5965271,7.0698242,6.7824707
	c5.2981567,4.9537048,5.8561401,7.4793701,5.3815308,8.7207642c-0.4754639,1.2898254-2.6534424,2.8883972-10.3939819,3.2185974
	c-31.6072388,1.0563965-63.0174561,5.4141541-93.7185059,13.0021667
	c-19.3476562,4.7028809-25.4002686,4.115509-45.4871826,2.1859436l-1.6732788-0.166687
	c-12.6342163-1.1725159-25.3250732-1.6222229-38.0106201-1.3469849c-6.7157593,0.0150757-14.3880005,0.0507812-23.5540771-0.1611328
	c-2.8867798-0.0754089-4.8759155-1.0477295-5.5775757-2.7645874c-0.5667114-2.912384,0.5557861-5.8955688,2.9018555-7.7119446
	c15.9564819-16.5715942,27.9179688-24.289856,49.4143066-37.6166687l-0.6707153-1.6437988
	c-5.1176147,1.1231384-9.8140869,2.4042053-15.2709961,3.9877014l-0.2626953,0.1119385
	c-16.5001831,11.2551575-34.1067505,24.4144592-47.1081543,35.1759338
	c-10.1712036,8.7597961-22.5861206,14.5057373-35.8466187,16.5906372
	c-15.6673584,3.2409668-31.094696,7.5499268-46.1739197,12.8966675l-0.2413025,0.1278076
	c-3.7003784,2.8415527-7.3944092,5.9165039-10.5741272,8.5700073l0.8437195,1.5525513
	c16.5616455-5.4707336,33.4224243-9.9904785,50.4998169-13.5371399c5.1934204-0.9421692,8.7802734-0.1730652,10.1526489,2.0502319
	c1.0443726,2.5843506,0.4185181,5.5438538-1.5827026,7.4841309
	c-33.1416016,44.6886902-58.2926941,72.1765442-104.4887695,48.7058105l-0.6254578-0.3238525l-0.4675293,0.5499878
	c-1.047699,1.2437744-2.049408,2.4947205-3.0519104,3.7615051l-1.3041077,1.60495l0.3841553,0.5580139
	c28.3403015,41.6282043,8.2160034,71.6869812-28.2807922,116.254364c-3.1638184,3.866272-5.8013916,5.7434692-7.4761658,5.079895
	c-0.9866333-0.3770142-3.255127-2.4272461-2.8852539-13.2958374c0.9831238-19.8685303,3.4650574-39.6344604,7.4245911-59.1292725
	l-1.6533508-0.6334229c-2.7494812,4.8084106-5.2290955,9.5502319-7.5126953,13.9665527l-0.0690613,0.2111206
	c-3.504303,16.7263184-5.8435059,33.6757202-7.0007629,50.7260132c-0.2484436,2.6605835-0.5,5.3513794-0.7539978,8.1095581
	c-0.3862915,12.2507324-3.6285706,24.2418823-9.4684753,35.0180054
	c-10.1344604,19.6721802-17.4200745,40.6854858-21.6380005,62.4089966c-0.1365051,3.7985229-0.2119446,6.7003784-0.2119446,9.428894
	c0,5.0049438,0.111908,9.4440918,0.3389282,13.5819702l1.7954102,0.0827637
	c3.3969116-23.8889771,10.7991333-47.0338135,21.8951721-68.4603882c3.6766052-7.0926514,5.5386658-8.276001,6.3681641-8.276001
	c0.0485229-0.0011597,0.0970764,0.0012817,0.1452332,0.0073242c1.650177,0.2716064,3.216217,5.2087402,4.6266785,14.6602173
	c4.8345032,33.4342651,13.267395,66.2483521,25.151886,97.8708496l1.3866272,3.3244019
	c2.0581665,4.9443359,4.115509,9.8359985,6.248291,14.7050171c0.120636,11.2756348,0.7160034,23.1697388,1.8240051,36.3592529
	c1.3414307,14.5023193,2.1478271,27.7370605-2.7058411,30.4428711c-3.7837219,2.0803833-11.3432617-1.4017334-23.9382324-10.9432373
	c-11.1817932-8.2331543-21.0457153-18.119873-29.2531128-29.3205566l-1.5803223,0.7762451l0.8199158,2.9852295
	c0.7239075,2.5844116,1.4326782,5.1704102,2.2232361,7.703186l0.1603394,0.3087769
	c8.7392883,10.3574829,18.0018005,20.2619019,27.7513733,29.6745605
	c19.2044067,19.1067505,35.7783813,35.5982056,46.473999,66.026001
	c10.0600586,28.8517456,24.1864929,56.1200562,41.9519958,80.9799805l0.1436768,0.1658936
	c6.3308411,5.2156372,12.3981323,9.9637451,18.5868835,14.5245361l1.1604309-1.3493652
	c-21.3150024-21.6546631-40.1360168-63.0264893-49.7750854-91.8867188
	c-5.2084961-15.4437256-6.1585999-23.6818848-3.0677795-26.6893311c3.8964539-3.8440552,15.638916,0.3460693,31.8597107,6.1879883
	l0.9119873,0.3389282c4.0623169,1.6057129,8.2913513,2.9772949,12.3838501,4.2965088l0.9723206,0.3167114
	c9.0366821,10.2733154,18.7146606,20.3052979,28.7919312,29.824585
	c34.7026367,33.3850708,75.114563,60.2719116,119.3145142,79.3822021
	c27.8276367,11.8028564,40.5808716,20.5537109,40.1056519,27.5480957
	c-0.6482544,9.595459-26.3123779,17.3352051-62.4988403,27.2092285l-3.2329102,0.8905029l3.2329102,0.8509521
	c2.9701538,0.7841797,5.9998169,1.5231934,8.7588501,2.1256104l0.1958618,0.0452881l0.2107544-0.0452881
	c86.6331177-20.6751709,91.8186035-21.9102783,171.3067627-2.307373l0.2341309,0.0603027l0.2254028-0.0603027
	c1.7034912-0.543457,3.3575439-1.2312012,4.9441528-2.0557861c1.2501221-0.6350098,2.5363159-1.1964111,3.8519897-1.6811523
	l3.3019409-1.1168213l-3.4297485-0.6239014c-26.4860229-4.802124-49.421875-13.4681396-49.0524902-18.5345459
	c0.0980835-1.6589355,3.4745483-5.6466064,32.0856323-6.7459717c44.274353-2.4591064,87.8431396-12.1812744,128.9628296-28.7776489
	l0.2103271-0.1135254c4.0178833-2.9463501,7.8095703-6.0593262,11.6607666-9.2398682l-0.9119873-1.5303345
	c-43.6901855,18.4044189-90.4868164,28.3162842-137.8868408,29.2055054
	c-1.612854,0.0095215-3.1958008,0.0145264-4.7489014,0.0150757c-20.6815186,0-33.8416748-1.3620605-36.1329956-7.0975952
	c-2.005127-5.0354614,4.2437134-14.072876,19.649353-28.4165039c13.4906006-12.5244751,26.0109863-26.0549927,37.4532471-40.4749146
	c3.7607422-4.6957397,7.3833008-9.2456665,10.8677979-13.6498413c50.0251465-63.003479,72.84021-91.7962036,145.2431641-50.6426392
	c10.1669312,5.7958374,20.071167,10.9741821,30.5706787,16.4612427c4.4996948,2.3438721,9.0319214,4.7205811,13.5966797,7.130127
	l0.7540283,0.4071655l1.2897949-2.1557617c0.6635742-1.1763306,1.3477783-2.3287964,2.1256104-3.5202026l0.4873657-0.7540283
	l-4.3084106-2.7955322c-12.2417603-7.944519-24.9041748-16.159668-38.3127441-24.104126
	c-28.755127-18.8652954-43.5654297-35.8170776-46.6252441-53.3562012
	c-3.994873-22.9659424,11.8933105-46.2331543,34.7544556-76.6160278c1.0397949-1.3864746,2.1478271-2.9020386,3.3082886-4.4771118
	c8.2008667-11.1325073,19.310791-26.2368774,28.0759888-26.2368774c0.317749-0.0026855,0.6352539,0.0174561,0.9501343,0.0602417
	c3.5352783,0.4595337,6.5205078,3.7455444,8.8795166,9.7454224
	c20.5609131,52.9036865,24.2550049,105.5443115,12.3457642,176.0097046l1.6715698,0.5881348
	c0.9508667-1.6882935,1.9168701-3.3693848,2.9042969-5.0576782c1.6557007-2.8495483,3.3606567-5.7886963,4.9052734-8.7207642
	l0.0904541-0.2564087c10.1738281-55.4414673,5.9779053-112.5648193-12.1878052-165.9246216
	c-9.586731-29.5458374-3.3987427-52.2255249,3.7758179-78.5007324c2.0136719-7.3485718,4.0853271-14.9457397,5.8807983-23.0037231
	H1022.8613281z"/>
<path fill="#FFFFFF" d="M424.2202454,664.4310303c2.8764648-2.1575928,5.8731079-4.4350586,8.9898376-6.8323975
	c3.2371826-2.4700928,6.7338257-4.5802002,10.4280701-6.2929077c4.1058655-1.8934937,8.3800049-3.3983765,12.766449-4.4949951
	c5.3579102-1.2766113,10.8540039-1.8806152,16.3612671-1.7979736c6.1338196-0.1439819,12.2380371,0.8937378,17.9796753,3.0565796
	c4.7320557,1.8378296,9.0215149,4.6564941,12.5862732,8.2706909c3.2749634,3.3502197,5.8430481,7.3245239,7.5516052,11.6868896
	c1.6402588,4.1200562,2.4939575,8.5109863,2.5169067,12.9454956v7.1920166h-23.73349
	c-12.2327576-0.0605469-24.4468079,0.9623413-36.499115,3.0565796
	c-10.4301453,1.7113647-20.5113831,5.1121826-29.8468018,10.0686646
	c-8.1029358,4.3060303-15.0193481,10.5432739-20.1369934,18.1596069
	c-4.9147949,7.4316406-7.3719482,16.6613159-7.3714294,27.6890259c-0.1636047,7.6331177,1.4359741,15.2011108,4.6743164,22.1151733
	c3.0097656,6.2185669,7.3712769,11.6858521,12.7656555,16.0020752c5.6069641,4.4252319,12.0180664,7.7224731,18.8789978,9.7094727
	c7.3527527,2.180542,14.9855957,3.270813,22.6547852,3.2360229c12.9450378-0.000061,24.3321838-2.2774658,34.1615601-6.8324585
	c9.8287964-4.5548096,18.3392029-12.3459473,25.53125-23.3736572h0.7191162c0,8.6303101,0.3595581,17.260498,1.0786743,25.890625
	h28.7681274c-0.4793701-4.5544434-0.8389893-9.348938-1.0786743-14.3834839
	c-0.2396851-5.0343018-0.3595581-10.5481567-0.3595581-16.5414429v-87.022522
	c0.019043-7.3323975-1.385376-14.5988159-4.135376-21.3959961c-2.8314819-6.9383545-7.1955566-13.1464844-12.765625-18.159729
	c-5.7537842-5.2740479-13.1257324-9.4692383-22.1158142-12.5855103c-8.9898376-3.1170044-19.7177124-4.675354-32.1835632-4.6751099
	c-12.2562561,0.046875-24.4155579,2.1746826-35.9593811,6.2927246c-11.736145,4.0458374-22.509613,10.4732666-31.6445923,18.8790894
	L424.2202454,664.4310303z M513.4003296,711.8977661v10.7879028c-0.0213013,5.9024658-0.8684692,11.7728882-2.5169373,17.4404907
	c-1.6578064,5.8339233-4.4703369,11.2755127-8.2707214,16.0020142c-4.0846252,4.9888916-9.2489014,8.9850464-15.1032104,11.6869507
	c-6.2331848,2.996582-13.7847595,4.4949341-22.6547852,4.4949341c-11.2670593,0-20.197113-2.1575317-26.7901306-6.4727783
	c-6.5927429-4.3151245-9.888855-11.3872681-9.8883362-21.2161865c-0.0000305-6.7124023,2.0975647-12.2262573,6.2927246-16.5414429
	c4.5577393-4.5435791,10.0921631-7.9872437,16.1818848-10.0687866c7.0862732-2.5076904,14.4529724-4.1380005,21.9356384-4.8544922
	c7.8239136-0.828125,15.6856689-1.2481689,23.5532837-1.258606H513.4003296z M737.0695801,646.4511719
	c-8.1883545-8.9713135-18.3423462-15.925354-29.666748-20.3175659c-11.4049072-4.4380493-23.5419312-6.6946411-35.7798462-6.6522827
	c-13.4249878,0-25.5913086,2.2174072-36.4990845,6.6522827c-21.3513184,8.3960571-38.1431274,25.4492188-46.2084351,46.9276733
	c-4.4175415,11.5930176-6.6134033,23.9139404-6.4729004,36.3192749
	c-0.1518555,12.3478394,2.0447388,24.6119995,6.4729004,36.1394653c4.0717163,10.5358276,10.321228,20.0936279,18.3400269,28.048584
	c8.0825806,7.9022217,17.6860352,14.0803223,28.2280273,18.1594849c11.5274048,4.4285278,23.791626,6.6251831,36.1394653,6.4729004
	c12.0749512,0.0679321,24.0666504-2.00177,35.4202271-6.1133423c11.2905884-4.1727905,21.3631592-11.09375,29.3071289-20.137207
	l-23.0142212-23.0142822c-5.0231323,5.8478394-11.1281738,10.6708374-17.9797974,14.2041016
	c-6.4727173,3.2363892-14.2640381,4.8545532-23.3738403,4.8545532c-7.7846069,0.1221924-15.5064087-1.4099121-22.6546021-4.4949951
	c-6.5567627-2.8845825-12.4365845-7.1107178-17.2606201-12.4060669
	c-4.8706055-5.4000244-8.6554565-11.6876221-11.1477051-18.5192871c-2.6582642-7.1930542-3.9981079-14.8063965-3.9552002-22.4747925
	c-0.0258179-7.7406616,1.1260986-15.4401855,3.4162598-22.8343506c2.1339722-7.0366211,5.5471802-13.6194458,10.0684204-19.4182739
	c4.4332275-5.6322632,10.0897827-10.1821289,16.5414429-13.3049927c6.5925903-3.2363892,14.3239136-4.8545532,23.1939697-4.8545532
	c9.1098022,0,16.9609985,1.6181641,23.5535889,4.8545532c7.0742188,3.5957031,13.4638062,8.4030151,18.8788452,14.2039795
	L737.0695801,646.4511719z M764.0393066,793.885498h32.3638916v-88.4605103
	c-0.000061-9.5892944,1.1985474-17.9199219,3.5956421-24.9920044c2.0249023-6.409668,5.3276978-12.3425293,9.7089844-17.4404297
	c3.9092407-4.4350586,8.7631836-7.9371338,14.2046509-10.2485352c5.2859497-2.2553711,10.9738159-3.4174194,16.7208252-3.4161377
	c7.9111328,0,14.2041016,1.378479,18.8790283,4.135376c4.6328735,2.7119751,8.3800049,6.7090454,10.7876587,11.5070801
	c2.6824951,5.4754028,4.3864136,11.3778687,5.034668,17.4404907c0.8788452,7.3986206,1.2992554,14.8444824,1.2588501,22.2949829
	v89.1796875h32.3637085v-93.1351929c0-15.1030273,3.3562012-27.4492188,10.0685425-37.0384521
	c6.7125854-9.5892944,17.8600464-14.3839111,33.4424438-14.3839111c7.9111938,0,14.2639771,1.378418,19.0583496,4.135376
	c4.6293945,2.5939331,8.4789429,6.3812866,11.1480103,10.9677734c2.7474976,4.8861084,4.5183716,10.2599487,5.2139893,15.8222046
	c0.8526001,6.1962891,1.2730103,12.4443359,1.2580566,18.6989746v94.9332275h32.3637695V694.637146
	c0.0228271-9.3557739-0.8803711-18.6908569-2.6963501-27.8687134c-1.6436768-8.6140137-5.0070801-16.8082275-9.8891602-24.0930176
	c-5.034729-7.28125-11.8416138-13.159668-19.7782593-17.0806885c-8.390564-4.3154907-19.1784058-6.4731445-32.3637085-6.4729004
	c-10.682373,0.0949707-21.1780396,2.8115234-30.5651245,7.9111328
	c-10.0756226,5.2800903-18.2481689,13.5783691-23.3739014,23.7333984
	c-5.5140991-10.5481567-12.5862427-18.4592896-21.2165527-23.7333984c-8.630249-5.274353-19.2984009-7.911438-32.0041504-7.9111328
	c-7.1567993-0.0847778-14.2741699,1.071106-21.036377,3.4162598c-5.8505249,2.0246582-11.411377,4.8050537-16.5414429,8.2706299
	c-4.2796021,2.8823853-8.1502075,6.3297729-11.5067749,10.2485352c-2.9971313,3.5958862-4.8549805,6.5925903-5.5736084,8.9899292
	h-0.7191162v-26.6098022h-30.206543V793.885498z"/>
</svg>
